REM DIRINDEX 1\2\4,1\2\5,1\2\6,1\3\7,1\3\8,1\3\9,1\3\10
REM DIRNAME cjc057,folder01,folder02,folder03,folder04,folder05,folder06,folder07,folder08,folder09
TITLE ""
FILE "b_018.mp3" MP3
  TRACK 01 AUDIO
    TITLE "0:"
    INDEX 01 00:00:00
  TRACK 02 AUDIO
    TITLE "7:cjc057_04874"
    INDEX 01 00:00:09
  TRACK 03 AUDIO
    TITLE "0:"
    INDEX 01 00:01:46
  TRACK 04 AUDIO
    TITLE "8:cjc057_04875"
    INDEX 01 00:01:73
  TRACK 05 AUDIO
    TITLE "0:"
    INDEX 01 00:04:42
  TRACK 06 AUDIO
    TITLE "9:cjc057_04876"
    INDEX 01 00:05:07
  TRACK 07 AUDIO
    TITLE "0:"
    INDEX 01 00:07:15
  TRACK 08 AUDIO
    TITLE "7:cjc057_04877"
    INDEX 01 00:08:23
  TRACK 09 AUDIO
    TITLE "0:"
    INDEX 01 00:09:51
  TRACK 10 AUDIO
    TITLE "8:cjc057_04878"
    INDEX 01 00:10:08
  TRACK 11 AUDIO
    TITLE "0:"
    INDEX 01 00:11:31
  TRACK 12 AUDIO
    TITLE "9:cjc057_04879"
    INDEX 01 00:11:72
  TRACK 13 AUDIO
    TITLE "0:"
    INDEX 01 00:16:00
  TRACK 14 AUDIO
    TITLE "7:cjc057_04880"
    INDEX 01 00:17:06
  TRACK 15 AUDIO
    TITLE "0:"
    INDEX 01 00:18:27
  TRACK 16 AUDIO
    TITLE "8:cjc057_04881"
    INDEX 01 00:18:60
  TRACK 17 AUDIO
    TITLE "0:"
    INDEX 01 00:20:06
  TRACK 18 AUDIO
    TITLE "9:cjc057_04882"
    INDEX 01 00:20:51
  TRACK 19 AUDIO
    TITLE "0:"
    INDEX 01 00:23:28
  TRACK 20 AUDIO
    TITLE "7:cjc057_04883"
    INDEX 01 00:24:37
  TRACK 21 AUDIO
    TITLE "0:"
    INDEX 01 00:25:54
  TRACK 22 AUDIO
    TITLE "8:cjc057_04884"
    INDEX 01 00:26:09
  TRACK 23 AUDIO
    TITLE "0:"
    INDEX 01 00:29:03
  TRACK 24 AUDIO
    TITLE "9:cjc057_04885"
    INDEX 01 00:29:48
  TRACK 25 AUDIO
    TITLE "0:"
    INDEX 01 00:33:07
  TRACK 26 AUDIO
    TITLE "7:cjc057_04886"
    INDEX 01 00:34:10
  TRACK 27 AUDIO
    TITLE "0:"
    INDEX 01 00:35:45
  TRACK 28 AUDIO
    TITLE "8:cjc057_04887"
    INDEX 01 00:36:01
  TRACK 29 AUDIO
    TITLE "0:"
    INDEX 01 00:38:41
  TRACK 30 AUDIO
    TITLE "9:cjc057_04888"
    INDEX 01 00:39:09
  TRACK 31 AUDIO
    TITLE "0:"
    INDEX 01 00:42:10
  TRACK 32 AUDIO
    TITLE "7:cjc057_04889"
    INDEX 01 00:43:11
  TRACK 33 AUDIO
    TITLE "0:"
    INDEX 01 00:44:40
  TRACK 34 AUDIO
    TITLE "8:cjc057_04890"
    INDEX 01 00:44:71
  TRACK 35 AUDIO
    TITLE "0:"
    INDEX 01 00:47:42
  TRACK 36 AUDIO
    TITLE "9:cjc057_04891"
    INDEX 01 00:48:14
  TRACK 37 AUDIO
    TITLE "0:"
    INDEX 01 00:51:69
  TRACK 38 AUDIO
    TITLE "7:cjc057_04892"
    INDEX 01 00:53:00
  TRACK 39 AUDIO
    TITLE "0:"
    INDEX 01 00:54:34
  TRACK 40 AUDIO
    TITLE "8:cjc057_04893"
    INDEX 01 00:54:66
  TRACK 41 AUDIO
    TITLE "0:"
    INDEX 01 00:56:29
  TRACK 42 AUDIO
    TITLE "9:cjc057_04894"
    INDEX 01 00:56:74
  TRACK 43 AUDIO
    TITLE "0:"
    INDEX 01 01:00:37
  TRACK 44 AUDIO
    TITLE "7:cjc057_04895"
    INDEX 01 01:01:46
  TRACK 45 AUDIO
    TITLE "0:"
    INDEX 01 01:02:73
  TRACK 46 AUDIO
    TITLE "8:cjc057_04896"
    INDEX 01 01:03:29
  TRACK 47 AUDIO
    TITLE "0:"
    INDEX 01 01:04:54
  TRACK 48 AUDIO
    TITLE "9:cjc057_04897"
    INDEX 01 01:05:22
  TRACK 49 AUDIO
    TITLE "0:"
    INDEX 01 01:08:46
  TRACK 50 AUDIO
    TITLE "7:cjc057_04898"
    INDEX 01 01:09:52
  TRACK 51 AUDIO
    TITLE "0:"
    INDEX 01 01:11:09
  TRACK 52 AUDIO
    TITLE "8:cjc057_04899"
    INDEX 01 01:11:39
  TRACK 53 AUDIO
    TITLE "0:"
    INDEX 01 01:13:73
  TRACK 54 AUDIO
    TITLE "9:cjc057_04900"
    INDEX 01 01:14:37
  TRACK 55 AUDIO
    TITLE "0:"
    INDEX 01 01:18:11
  TRACK 56 AUDIO
    TITLE "7:cjc057_04901"
    INDEX 01 01:19:17
  TRACK 57 AUDIO
    TITLE "0:"
    INDEX 01 01:20:28
  TRACK 58 AUDIO
    TITLE "8:cjc057_04902"
    INDEX 01 01:20:61
  TRACK 59 AUDIO
    TITLE "0:"
    INDEX 01 01:23:52
  TRACK 60 AUDIO
    TITLE "9:cjc057_04903"
    INDEX 01 01:24:20
  TRACK 61 AUDIO
    TITLE "0:"
    INDEX 01 01:28:10
